<svg width="20" height="20" viewBox="0 0 20 20" fill="none" xmlns="http://www.w3.org/2000/svg">
<path fill-rule="evenodd" clip-rule="evenodd" d="M10 20C15.5228 20 20 15.5228 20 9.99999C20 4.47714 15.5228 -7.62939e-06 10 -7.62939e-06C4.47715 -7.62939e-06 0 4.47714 0 9.99999C0 15.5228 4.47715 20 10 20ZM7.70711 6.29289C7.31658 5.90236 6.68342 5.90236 6.29289 6.29289C5.90237 6.68341 5.90237 7.31658 6.29289 7.7071L8.58579 9.99999L6.29289 12.2929C5.90237 12.6834 5.90237 13.3166 6.29289 13.7071C6.68342 14.0976 7.31658 14.0976 7.70711 13.7071L10 11.4142L12.2929 13.7071C12.6834 14.0976 13.3166 14.0976 13.7071 13.7071C14.0976 13.3166 14.0976 12.6834 13.7071 12.2929L11.4142 9.99999L13.7071 7.7071C14.0976 7.31658 14.0976 6.68341 13.7071 6.29289C13.3166 5.90236 12.6834 5.90236 12.2929 6.29289L10 8.58578L7.70711 6.29289Z" fill="#F4F5F6"/>
</svg>
