<svg width="17" height="16" viewBox="0 0 17 16" fill="none" xmlns="http://www.w3.org/2000/svg">
<path d="M8.49998 1.33325C8.13179 1.33325 7.83331 1.63173 7.83331 1.99992V3.99992C7.83331 4.36811 8.13179 4.66659 8.49998 4.66659C8.86817 4.66659 9.16665 4.36811 9.16665 3.99992V1.99992C9.16665 1.63173 8.86817 1.33325 8.49998 1.33325Z" fill="#FCFCFD"/>
<path d="M8.49998 11.3333C8.13179 11.3333 7.83331 11.6317 7.83331 11.9999V13.9999C7.83331 14.3681 8.13179 14.6666 8.49998 14.6666C8.86817 14.6666 9.16665 14.3681 9.16665 13.9999V11.9999C9.16665 11.6317 8.86817 11.3333 8.49998 11.3333Z" fill="#FCFCFD"/>
<path d="M14.5 7.33325C14.8682 7.33325 15.1666 7.63173 15.1666 7.99992C15.1666 8.36811 14.8682 8.66659 14.5 8.66659H12.5C12.1318 8.66659 11.8333 8.36811 11.8333 7.99992C11.8333 7.63173 12.1318 7.33325 12.5 7.33325H14.5Z" fill="#FCFCFD"/>
<path d="M5.16665 7.99992C5.16665 7.63173 4.86817 7.33325 4.49998 7.33325H2.49998C2.13179 7.33325 1.83331 7.63173 1.83331 7.99992C1.83331 8.36811 2.13179 8.66659 2.49998 8.66659H4.49998C4.86817 8.66659 5.16665 8.36811 5.16665 7.99992Z" fill="#FCFCFD"/>
<path d="M12.2713 3.28594C12.5316 3.02559 12.9537 3.02559 13.2141 3.28594C13.4744 3.54629 13.4744 3.9684 13.2141 4.22875L11.7998 5.64296C11.5395 5.90331 11.1174 5.90331 10.857 5.64296C10.5967 5.38261 10.5967 4.9605 10.857 4.70015L12.2713 3.28594Z" fill="#FCFCFD"/>
<path d="M6.14293 10.3569C5.88258 10.0966 5.46047 10.0966 5.20012 10.3569L3.78591 11.7711C3.52556 12.0315 3.52556 12.4536 3.78591 12.7139C4.04626 12.9743 4.46837 12.9743 4.72872 12.7139L6.14293 11.2997C6.40328 11.0394 6.40328 10.6173 6.14293 10.3569Z" fill="#FCFCFD"/>
<path d="M13.214 11.7712C13.4744 12.0315 13.4744 12.4536 13.214 12.714C12.9537 12.9743 12.5316 12.9743 12.2712 12.714L10.857 11.2998C10.5967 11.0394 10.5967 10.6173 10.857 10.357C11.1174 10.0966 11.5395 10.0966 11.7998 10.357L13.214 11.7712Z" fill="#FCFCFD"/>
<path d="M6.143 5.64287C6.40335 5.38252 6.40335 4.96041 6.143 4.70006L4.72878 3.28585C4.46843 3.0255 4.04632 3.0255 3.78597 3.28585C3.52562 3.5462 3.52562 3.96831 3.78597 4.22866L5.20019 5.64287C5.46054 5.90322 5.88265 5.90322 6.143 5.64287Z" fill="#FCFCFD"/>
</svg>
